<svg width="159" height="89" viewBox="0 0 159 89" fill="none" xmlns="http://www.w3.org/2000/svg">
<path d="M9.43843 35.24C8.31843 35.24 7.31043 35.104 6.41443 34.832C5.51843 34.544 4.66243 34.048 3.84643 33.344C3.63843 33.168 3.47843 32.968 3.36643 32.744C3.25443 32.52 3.19843 32.296 3.19843 32.072C3.19843 31.704 3.32643 31.384 3.58243 31.112C3.85443 30.824 4.19043 30.68 4.59043 30.68C4.89443 30.68 5.16643 30.776 5.40643 30.968C6.01443 31.464 6.61443 31.84 7.20643 32.096C7.81443 32.352 8.55843 32.48 9.43843 32.48C10.0304 32.48 10.5744 32.392 11.0704 32.216C11.5664 32.024 11.9664 31.776 12.2704 31.472C12.5744 31.152 12.7264 30.792 12.7264 30.392C12.7264 29.912 12.5824 29.504 12.2944 29.168C12.0064 28.832 11.5664 28.552 10.9744 28.328C10.3824 28.088 9.63043 27.904 8.71843 27.776C7.85443 27.648 7.09443 27.456 6.43843 27.2C5.78243 26.928 5.23043 26.592 4.78243 26.192C4.35043 25.776 4.02243 25.296 3.79843 24.752C3.57443 24.192 3.46243 23.568 3.46243 22.88C3.46243 21.84 3.72643 20.952 4.25443 20.216C4.79843 19.48 5.52643 18.92 6.43843 18.536C7.35043 18.152 8.35843 17.96 9.46243 17.96C10.5024 17.96 11.4624 18.12 12.3424 18.44C13.2384 18.744 13.9664 19.136 14.5264 19.616C14.9904 19.984 15.2224 20.408 15.2224 20.888C15.2224 21.24 15.0864 21.56 14.8144 21.848C14.5424 22.136 14.2224 22.28 13.8544 22.28C13.6144 22.28 13.3984 22.208 13.2064 22.064C12.9504 21.84 12.6064 21.632 12.1744 21.44C11.7424 21.232 11.2864 21.064 10.8064 20.936C10.3264 20.792 9.87843 20.72 9.46243 20.72C8.77443 20.72 8.19043 20.808 7.71043 20.984C7.24643 21.16 6.89443 21.4 6.65443 21.704C6.41443 22.008 6.29443 22.36 6.29443 22.76C6.29443 23.24 6.43043 23.64 6.70243 23.96C6.99043 24.264 7.39843 24.512 7.92643 24.704C8.45443 24.88 9.08643 25.04 9.82243 25.184C10.7824 25.36 11.6224 25.568 12.3424 25.808C13.0784 26.048 13.6864 26.36 14.1664 26.744C14.6464 27.112 15.0064 27.584 15.2464 28.16C15.4864 28.72 15.6064 29.408 15.6064 30.224C15.6064 31.264 15.3184 32.16 14.7424 32.912C14.1664 33.664 13.4064 34.24 12.4624 34.64C11.5344 35.04 10.5264 35.24 9.43843 35.24ZM25.7747 18.2C26.6067 18.2 27.3827 18.44 28.1027 18.92C28.8387 19.4 29.4307 20.048 29.8787 20.864C30.3267 21.68 30.5507 22.592 30.5507 23.6C30.5507 24.592 30.3267 25.496 29.8787 26.312C29.4307 27.128 28.8387 27.784 28.1027 28.28C27.3827 28.76 26.6067 29 25.7747 29H21.3587L21.5987 28.568V33.536C21.5987 33.952 21.4707 34.304 21.2147 34.592C20.9587 34.864 20.6227 35 20.2067 35C19.8067 35 19.4787 34.864 19.2227 34.592C18.9667 34.304 18.8387 33.952 18.8387 33.536V19.664C18.8387 19.248 18.9747 18.904 19.2467 18.632C19.5347 18.344 19.8867 18.2 20.3027 18.2H25.7747ZM25.7747 26.264C26.0787 26.264 26.3747 26.136 26.6627 25.88C26.9507 25.624 27.1907 25.296 27.3827 24.896C27.5747 24.48 27.6707 24.048 27.6707 23.6C27.6707 23.136 27.5747 22.704 27.3827 22.304C27.1907 21.904 26.9507 21.584 26.6627 21.344C26.3747 21.088 26.0787 20.96 25.7747 20.96H21.3107L21.5987 20.528V26.648L21.3347 26.264H25.7747ZM35.2437 18.2H43.2837C43.6997 18.2 44.0437 18.336 44.3157 18.608C44.6037 18.864 44.7477 19.2 44.7477 19.616C44.7477 20.016 44.6037 20.344 44.3157 20.6C44.0437 20.84 43.6997 20.96 43.2837 20.96H36.5637L36.7797 20.552V25.232L36.5877 25.04H42.2037C42.6197 25.04 42.9637 25.176 43.2357 25.448C43.5237 25.704 43.6677 26.04 43.6677 26.456C43.6677 26.856 43.5237 27.184 43.2357 27.44C42.9637 27.68 42.6197 27.8 42.2037 27.8H36.6597L36.7797 27.608V32.456L36.5877 32.24H43.2837C43.6997 32.24 44.0437 32.384 44.3157 32.672C44.6037 32.944 44.7477 33.264 44.7477 33.632C44.7477 34.032 44.6037 34.36 44.3157 34.616C44.0437 34.872 43.6997 35 43.2837 35H35.2437C34.8277 35 34.4757 34.864 34.1877 34.592C33.9157 34.304 33.7797 33.952 33.7797 33.536V19.664C33.7797 19.248 33.9157 18.904 34.1877 18.632C34.4757 18.344 34.8277 18.2 35.2437 18.2ZM54.1621 21.968L48.9781 34.16C48.8661 34.464 48.6901 34.704 48.4501 34.88C48.2261 35.04 47.9781 35.12 47.7061 35.12C47.2741 35.12 46.9541 35 46.7461 34.76C46.5381 34.52 46.4341 34.224 46.4341 33.872C46.4341 33.728 46.4581 33.576 46.5061 33.416L52.4821 19.064C52.6101 18.744 52.8021 18.496 53.0581 18.32C53.3301 18.144 53.6181 18.072 53.9221 18.104C54.2101 18.104 54.4741 18.192 54.7141 18.368C54.9701 18.528 55.1541 18.76 55.2661 19.064L61.1701 33.128C61.2501 33.336 61.2901 33.528 61.2901 33.704C61.2901 34.136 61.1461 34.48 60.8581 34.736C60.5861 34.992 60.2821 35.12 59.9461 35.12C59.6581 35.12 59.3941 35.032 59.1541 34.856C58.9301 34.68 58.7541 34.44 58.6261 34.136L53.4661 22.112L54.1621 21.968ZM49.7221 31.232L51.0421 28.472H57.5221L57.9781 31.232H49.7221ZM75.3702 35C74.9222 35 74.5622 34.816 74.2902 34.448L68.7462 27.152L70.9302 24.92L76.6662 32.504C76.8902 32.808 77.0022 33.136 77.0022 33.488C77.0022 33.936 76.8342 34.304 76.4982 34.592C76.1622 34.864 75.7862 35 75.3702 35ZM75.6582 18.08C76.0422 18.08 76.3542 18.24 76.5942 18.56C76.8502 18.864 76.9782 19.176 76.9782 19.496C76.9782 19.832 76.8342 20.144 76.5462 20.432L66.4902 30.056L66.3702 26.624L74.4822 18.632C74.8502 18.264 75.2422 18.08 75.6582 18.08ZM65.2902 35C64.8422 35 64.4822 34.864 64.2102 34.592C63.9382 34.304 63.8022 33.952 63.8022 33.536V19.664C63.8022 19.248 63.9462 18.904 64.2342 18.632C64.5222 18.344 64.8902 18.2 65.3382 18.2C65.7862 18.2 66.1382 18.344 66.3942 18.632C66.6662 18.904 66.8022 19.248 66.8022 19.664V33.536C66.8022 33.952 66.6662 34.304 66.3942 34.592C66.1222 34.864 65.7542 35 65.2902 35ZM81.4727 18.2H89.5127C89.9287 18.2 90.2727 18.336 90.5447 18.608C90.8327 18.864 90.9767 19.2 90.9767 19.616C90.9767 20.016 90.8327 20.344 90.5447 20.6C90.2727 20.84 89.9287 20.96 89.5127 20.96H82.7927L83.0087 20.552V25.232L82.8167 25.04H88.4327C88.8487 25.04 89.1927 25.176 89.4647 25.448C89.7527 25.704 89.8967 26.04 89.8967 26.456C89.8967 26.856 89.7527 27.184 89.4647 27.44C89.1927 27.68 88.8487 27.8 88.4327 27.8H82.8887L83.0087 27.608V32.456L82.8167 32.24H89.5127C89.9287 32.24 90.2727 32.384 90.5447 32.672C90.8327 32.944 90.9767 33.264 90.9767 33.632C90.9767 34.032 90.8327 34.36 90.5447 34.616C90.2727 34.872 89.9287 35 89.5127 35H81.4727C81.0567 35 80.7047 34.864 80.4167 34.592C80.1447 34.304 80.0087 33.952 80.0087 33.536V19.664C80.0087 19.248 80.1447 18.904 80.4167 18.632C80.7047 18.344 81.0567 18.2 81.4727 18.2ZM95.9511 35C95.5031 35 95.1031 34.864 94.7511 34.592C94.3991 34.304 94.2231 33.952 94.2231 33.536V19.664C94.2231 19.248 94.3591 18.904 94.6311 18.632C94.9191 18.344 95.2711 18.2 95.6871 18.2H102.599C103.431 18.2 104.207 18.424 104.927 18.872C105.663 19.304 106.255 19.912 106.703 20.696C107.151 21.464 107.375 22.352 107.375 23.36C107.375 23.968 107.247 24.56 106.991 25.136C106.751 25.712 106.415 26.232 105.983 26.696C105.567 27.16 105.095 27.52 104.567 27.776L104.591 27.224C105.039 27.464 105.407 27.752 105.695 28.088C105.999 28.408 106.231 28.76 106.391 29.144C106.567 29.512 106.671 29.912 106.703 30.344C106.767 30.744 106.807 31.096 106.823 31.4C106.855 31.704 106.903 31.96 106.967 32.168C107.047 32.376 107.191 32.536 107.399 32.648C107.751 32.856 107.967 33.16 108.047 33.56C108.143 33.944 108.055 34.288 107.783 34.592C107.607 34.8 107.383 34.936 107.111 35C106.839 35.048 106.567 35.048 106.295 35C106.023 34.936 105.799 34.856 105.623 34.76C105.351 34.6 105.079 34.368 104.807 34.064C104.535 33.744 104.311 33.32 104.135 32.792C103.975 32.264 103.895 31.584 103.895 30.752C103.895 30.48 103.847 30.232 103.751 30.008C103.655 29.768 103.519 29.568 103.343 29.408C103.167 29.232 102.943 29.104 102.671 29.024C102.399 28.928 102.079 28.88 101.711 28.88H96.8631L97.2231 28.328V33.536C97.2231 33.952 97.1111 34.304 96.8871 34.592C96.6631 34.864 96.3511 35 95.9511 35ZM96.8871 26.408H102.479C102.767 26.408 103.047 26.28 103.319 26.024C103.591 25.752 103.815 25.392 103.991 24.944C104.167 24.48 104.255 23.976 104.255 23.432C104.255 22.728 104.063 22.144 103.679 21.68C103.311 21.2 102.911 20.96 102.479 20.96H96.9351L97.2231 20.192V26.984L96.8871 26.408Z" fill="#24754F"/>
<path d="M126.636 26.6C126.636 27.8 126.436 28.92 126.036 29.96C125.636 31 125.068 31.92 124.332 32.72C123.612 33.504 122.748 34.12 121.74 34.568C120.748 35.016 119.66 35.24 118.476 35.24C117.292 35.24 116.204 35.016 115.212 34.568C114.22 34.12 113.356 33.504 112.62 32.72C111.9 31.92 111.34 31 110.94 29.96C110.54 28.92 110.34 27.8 110.34 26.6C110.34 25.4 110.54 24.28 110.94 23.24C111.34 22.2 111.9 21.288 112.62 20.504C113.356 19.704 114.22 19.08 115.212 18.632C116.204 18.184 117.292 17.96 118.476 17.96C119.66 17.96 120.748 18.184 121.74 18.632C122.748 19.08 123.612 19.704 124.332 20.504C125.068 21.288 125.636 22.2 126.036 23.24C126.436 24.28 126.636 25.4 126.636 26.6ZM123.516 26.6C123.516 25.528 123.3 24.56 122.868 23.696C122.436 22.816 121.844 22.12 121.092 21.608C120.34 21.096 119.468 20.84 118.476 20.84C117.484 20.84 116.612 21.096 115.86 21.608C115.108 22.12 114.516 22.808 114.084 23.672C113.668 24.536 113.46 25.512 113.46 26.6C113.46 27.672 113.668 28.648 114.084 29.528C114.516 30.392 115.108 31.08 115.86 31.592C116.612 32.104 117.484 32.36 118.476 32.36C119.468 32.36 120.34 32.104 121.092 31.592C121.844 31.08 122.436 30.392 122.868 29.528C123.3 28.648 123.516 27.672 123.516 26.6ZM131.599 35C131.151 35 130.751 34.864 130.399 34.592C130.047 34.304 129.871 33.952 129.871 33.536V19.664C129.871 19.248 130.007 18.904 130.279 18.632C130.567 18.344 130.919 18.2 131.335 18.2H138.247C139.079 18.2 139.855 18.424 140.575 18.872C141.311 19.304 141.903 19.912 142.351 20.696C142.799 21.464 143.023 22.352 143.023 23.36C143.023 23.968 142.895 24.56 142.639 25.136C142.399 25.712 142.063 26.232 141.631 26.696C141.215 27.16 140.743 27.52 140.215 27.776L140.239 27.224C140.687 27.464 141.055 27.752 141.343 28.088C141.647 28.408 141.879 28.76 142.039 29.144C142.215 29.512 142.319 29.912 142.351 30.344C142.415 30.744 142.455 31.096 142.471 31.4C142.503 31.704 142.551 31.96 142.615 32.168C142.695 32.376 142.839 32.536 143.047 32.648C143.399 32.856 143.615 33.16 143.695 33.56C143.791 33.944 143.703 34.288 143.431 34.592C143.255 34.8 143.031 34.936 142.759 35C142.487 35.048 142.215 35.048 141.943 35C141.671 34.936 141.447 34.856 141.271 34.76C140.999 34.6 140.727 34.368 140.455 34.064C140.183 33.744 139.959 33.32 139.783 32.792C139.623 32.264 139.543 31.584 139.543 30.752C139.543 30.48 139.495 30.232 139.399 30.008C139.303 29.768 139.167 29.568 138.991 29.408C138.815 29.232 138.591 29.104 138.319 29.024C138.047 28.928 137.727 28.88 137.359 28.88H132.511L132.871 28.328V33.536C132.871 33.952 132.759 34.304 132.535 34.592C132.311 34.864 131.999 35 131.599 35ZM132.535 26.408H138.127C138.415 26.408 138.695 26.28 138.967 26.024C139.239 25.752 139.463 25.392 139.639 24.944C139.815 24.48 139.903 23.976 139.903 23.432C139.903 22.728 139.711 22.144 139.327 21.68C138.959 21.2 138.559 20.96 138.127 20.96H132.583L132.871 20.192V26.984L132.535 26.408ZM148.291 18.2H156.331C156.747 18.2 157.091 18.336 157.363 18.608C157.651 18.864 157.795 19.2 157.795 19.616C157.795 20.016 157.651 20.344 157.363 20.6C157.091 20.84 156.747 20.96 156.331 20.96H149.611L149.827 20.552V25.232L149.635 25.04H155.251C155.667 25.04 156.011 25.176 156.283 25.448C156.571 25.704 156.715 26.04 156.715 26.456C156.715 26.856 156.571 27.184 156.283 27.44C156.011 27.68 155.667 27.8 155.251 27.8H149.707L149.827 27.608V32.456L149.635 32.24H156.331C156.747 32.24 157.091 32.384 157.363 32.672C157.651 32.944 157.795 33.264 157.795 33.632C157.795 34.032 157.651 34.36 157.363 34.616C157.091 34.872 156.747 35 156.331 35H148.291C147.875 35 147.523 34.864 147.235 34.592C146.963 34.304 146.827 33.952 146.827 33.536V19.664C146.827 19.248 146.963 18.904 147.235 18.632C147.523 18.344 147.875 18.2 148.291 18.2Z" fill="#EF7676"/>
<path d="M1.675 58.625C1.62292 58.4688 1.57604 58.3229 1.53438 58.1875C1.50313 58.0521 1.48229 57.9219 1.47188 57.7969C1.46146 57.6823 1.45104 57.5625 1.44063 57.4375C1.44063 57.3229 1.44063 57.1823 1.44063 57.0156C1.44063 56.9948 1.44063 56.9531 1.44063 56.8906C1.44063 56.8385 1.44063 56.776 1.44063 56.7031C1.44063 56.6406 1.44063 56.5781 1.44063 56.5156C1.45104 56.4635 1.45625 56.4271 1.45625 56.4062C1.57084 55.8958 1.69584 55.3906 1.83125 54.8906C1.97709 54.401 2.14896 53.9219 2.34688 53.4531C2.54479 52.9948 2.78438 52.5573 3.06563 52.1406C3.34688 51.7344 3.69584 51.3542 4.1125 51C4.12292 50.9479 4.13854 50.8438 4.15938 50.6875C4.18021 50.5312 4.20625 50.3698 4.2375 50.2031C4.26875 50.0365 4.28959 49.8802 4.3 49.7344C4.32084 49.5781 4.33646 49.4635 4.34688 49.3906C4.34688 49.3698 4.34167 49.3229 4.33125 49.25C4.33125 49.1667 4.33125 49.1146 4.33125 49.0938H4.28438C3.91979 49.2812 3.57084 49.4479 3.2375 49.5938C2.90417 49.7292 2.53959 49.7969 2.14375 49.7969C1.925 49.7969 1.7375 49.7604 1.58125 49.6875C1.43542 49.6146 1.31563 49.5156 1.22188 49.3906C1.12813 49.2656 1.05521 49.1198 1.00313 48.9531C0.961461 48.7865 0.93542 48.6042 0.925003 48.4062L1.3 47.2656C1.39375 47.0052 1.50834 46.7292 1.64375 46.4375C1.78959 46.1354 1.95104 45.849 2.12813 45.5781C2.31563 45.3073 2.52917 45.0625 2.76875 44.8438C3.00834 44.6146 3.27917 44.4531 3.58125 44.3594C3.9875 44.2969 4.3625 44.3073 4.70625 44.3906C5.06042 44.474 5.36771 44.5938 5.62813 44.75C5.88854 44.9062 6.09688 45.0781 6.25313 45.2656C6.41979 45.4427 6.51875 45.599 6.55 45.7344C6.52917 45.8906 6.48229 46.0573 6.40938 46.2344C6.33646 46.401 6.25313 46.5729 6.15938 46.75C6.07604 46.9167 5.9875 47.0729 5.89375 47.2188C5.81042 47.3542 5.74792 47.4688 5.70625 47.5625C5.62292 47.75 5.55 47.9479 5.4875 48.1562C5.425 48.3646 5.36771 48.5781 5.31563 48.7969C5.27396 49.0156 5.2375 49.2396 5.20625 49.4688C5.18542 49.6875 5.175 49.8906 5.175 50.0781V50.3125C5.70625 50 6.27917 49.7552 6.89375 49.5781C7.50834 49.401 8.11771 49.3125 8.72188 49.3125C8.79479 49.3125 8.88854 49.3125 9.00313 49.3125C9.12813 49.3125 9.24271 49.3281 9.34688 49.3594C9.46146 49.3802 9.56042 49.4271 9.64375 49.5C9.72709 49.5625 9.76875 49.6562 9.76875 49.7812C9.76875 49.9792 9.65938 50.0781 9.44063 50.0781C9.40938 50.0781 9.33646 50.0729 9.22188 50.0625C9.10729 50.0417 9.02917 50.0208 8.9875 50C8.91459 50.0104 8.78959 50.0312 8.6125 50.0625C8.43542 50.0938 8.24271 50.1302 8.03438 50.1719C7.82604 50.2135 7.63334 50.2552 7.45625 50.2969C7.27917 50.3385 7.15417 50.3646 7.08125 50.375C7.05 50.3854 6.9875 50.4115 6.89375 50.4531C6.81042 50.4844 6.71667 50.5208 6.6125 50.5625C6.50834 50.6042 6.40417 50.6458 6.3 50.6875C6.20625 50.7188 6.14375 50.75 6.1125 50.7812C6.02917 50.8021 5.93021 50.8438 5.81563 50.9062C5.71146 50.9583 5.60729 51.0104 5.50313 51.0625C5.39896 51.125 5.30521 51.1771 5.22188 51.2188C5.14896 51.2708 5.1125 51.3021 5.1125 51.3125L4.95625 51.5312L4.58125 55.4844C4.55 55.7552 4.47188 56.0833 4.34688 56.4688C4.23229 56.8542 4.07604 57.224 3.87813 57.5781C3.68021 57.9323 3.43542 58.2292 3.14375 58.4688C2.8625 58.7188 2.53959 58.8438 2.175 58.8438C2.07084 58.8438 1.97709 58.8281 1.89375 58.7969C1.82084 58.776 1.74792 58.7188 1.675 58.625ZM2.20625 57.0938C2.21667 57.1875 2.22709 57.3229 2.2375 57.5C2.25834 57.6771 2.29479 57.8229 2.34688 57.9375C2.54479 57.8854 2.72709 57.7396 2.89375 57.5C3.06042 57.2708 3.20104 57.0104 3.31563 56.7188C3.43021 56.4271 3.52396 56.1354 3.59688 55.8438C3.66979 55.5625 3.71667 55.3438 3.7375 55.1875C3.77917 54.9479 3.81042 54.7188 3.83125 54.5C3.8625 54.2917 3.88854 54.0885 3.90938 53.8906C3.93021 53.7031 3.94584 53.5156 3.95625 53.3281C3.96667 53.1406 3.97188 52.9375 3.97188 52.7188C3.97188 52.6875 3.96667 52.6146 3.95625 52.5C3.95625 52.3958 3.95625 52.3281 3.95625 52.2969C3.675 52.6615 3.44063 53.0312 3.25313 53.4062C3.06563 53.7812 2.90417 54.1615 2.76875 54.5469C2.64375 54.9427 2.53438 55.349 2.44063 55.7656C2.35729 56.1927 2.27917 56.6354 2.20625 57.0938ZM1.83125 48.7031C1.8625 48.7865 1.90417 48.8594 1.95625 48.9219C2.01875 48.9844 2.10209 49.0156 2.20625 49.0156C2.63334 49.0156 3.01354 48.9271 3.34688 48.75C3.69063 48.5625 3.99271 48.3229 4.25313 48.0312C4.51354 47.7396 4.7375 47.4219 4.925 47.0781C5.12292 46.7344 5.28959 46.3906 5.425 46.0469V45.9844C5.25834 45.6406 5.06563 45.4219 4.84688 45.3281C4.63854 45.224 4.41459 45.2083 4.175 45.2812C3.94584 45.3438 3.71146 45.4792 3.47188 45.6875C3.23229 45.8854 3.00313 46.1146 2.78438 46.375C2.57604 46.625 2.38854 46.8906 2.22188 47.1719C2.05521 47.4531 1.925 47.7135 1.83125 47.9531C1.7375 48.1823 1.68542 48.3698 1.675 48.5156C1.66459 48.6615 1.71667 48.724 1.83125 48.7031ZM9.16688 49.7812C9.16688 49.7708 9.17209 49.7344 9.1825 49.6719C9.19292 49.6094 9.20334 49.5469 9.21375 49.4844C9.22417 49.4115 9.23459 49.349 9.245 49.2969C9.25542 49.2344 9.26063 49.1927 9.26063 49.1719V49.1094V49.0156L9.47938 48.0312C9.65646 47.6562 9.83875 47.2969 10.0263 46.9531C10.2242 46.6094 10.4481 46.3073 10.6981 46.0469C10.9481 45.7865 11.2346 45.5781 11.5575 45.4219C11.8908 45.2656 12.2919 45.1875 12.7606 45.1875C12.8544 45.1875 12.969 45.2188 13.1044 45.2812C13.2502 45.3333 13.3908 45.401 13.5263 45.4844C13.6721 45.5677 13.8023 45.6562 13.9169 45.75C14.0419 45.8333 14.1356 45.9115 14.1981 45.9844C14.521 45.9323 14.7554 45.9062 14.9013 45.9062C15.0471 45.8958 15.1721 45.8906 15.2763 45.8906C15.3804 45.8802 15.4898 45.8594 15.6044 45.8281C15.7294 45.7969 15.9169 45.7292 16.1669 45.625C16.344 45.5729 16.5158 45.5469 16.6825 45.5469C16.7554 45.5469 16.8231 45.5781 16.8856 45.6406C16.9585 45.7031 16.995 45.776 16.995 45.8594C16.995 45.9635 16.9585 46.0573 16.8856 46.1406C16.8127 46.224 16.7242 46.276 16.62 46.2969L14.6669 46.7344L14.495 46.8125C14.4846 47.375 14.3596 47.9115 14.12 48.4219C13.8804 48.9323 13.5627 49.3802 13.1669 49.7656C12.771 50.151 12.3127 50.4583 11.7919 50.6875C11.271 50.9062 10.7294 51.0156 10.1669 51.0156C10.1252 51.0156 10.0575 51.0104 9.96375 51C9.87 51 9.8075 51 9.77625 51C9.54709 50.9062 9.38563 50.7344 9.29188 50.4844C9.20854 50.2344 9.16688 50 9.16688 49.7812ZM10.1669 50.0938C10.1773 50.1458 10.219 50.1719 10.2919 50.1719C10.3648 50.1719 10.4169 50.1719 10.4481 50.1719C10.8231 50.1719 11.2085 50.0781 11.6044 49.8906C12.0002 49.6927 12.3544 49.4427 12.6669 49.1406C12.9898 48.8281 13.2502 48.4792 13.4481 48.0938C13.6565 47.6979 13.7606 47.3021 13.7606 46.9062C13.4273 46.9062 13.094 46.8802 12.7606 46.8281C12.4273 46.7656 12.1044 46.7344 11.7919 46.7344H11.7763L10.4794 48.1094C10.4065 48.1823 10.3492 48.2812 10.3075 48.4062C10.2658 48.5312 10.2346 48.6667 10.2138 48.8125C10.1929 48.9583 10.1773 49.1042 10.1669 49.25C10.1565 49.3958 10.1513 49.526 10.1513 49.6406C10.1513 49.6719 10.1513 49.7448 10.1513 49.8594C10.1513 49.974 10.1565 50.0521 10.1669 50.0938ZM17.1431 48.1719C17.1431 48.1719 17.1483 48.1667 17.1588 48.1562C17.1796 48.1354 17.1952 48.1198 17.2056 48.1094C17.2265 48.0156 17.2681 47.8542 17.3306 47.625C17.3931 47.3958 17.4608 47.151 17.5338 46.8906C17.6067 46.6198 17.6744 46.3698 17.7369 46.1406C17.8098 45.9115 17.8619 45.7552 17.8931 45.6719C17.9035 45.6302 17.9348 45.5417 17.9869 45.4062C18.0494 45.2604 18.1171 45.1042 18.19 44.9375C18.2629 44.7708 18.3358 44.6042 18.4088 44.4375C18.4817 44.2708 18.5338 44.1458 18.565 44.0625C18.6379 43.9167 18.7473 43.724 18.8931 43.4844C19.0494 43.2448 19.2213 43.0208 19.4088 42.8125C19.6067 42.5938 19.8098 42.4062 20.0181 42.25C20.2265 42.0833 20.4192 42 20.5963 42C20.69 42 20.7629 42.026 20.815 42.0781C20.8775 42.1302 20.9192 42.1927 20.94 42.2656C20.9713 42.3281 20.9921 42.401 21.0025 42.4844C21.0129 42.5677 21.0181 42.6406 21.0181 42.7031C21.0181 43.2448 20.94 43.7865 20.7838 44.3281C20.6379 44.8594 20.4348 45.3698 20.1744 45.8594C19.914 46.349 19.6015 46.8125 19.2369 47.25C18.8827 47.6771 18.5077 48.0625 18.1119 48.4062C18.1015 48.4375 18.0858 48.5 18.065 48.5938C18.0546 48.6875 18.0442 48.7552 18.0338 48.7969V48.8281C18.0338 49.0365 18.0858 49.2031 18.19 49.3281C18.3046 49.4531 18.44 49.5469 18.5963 49.6094C18.7525 49.6615 18.9244 49.6979 19.1119 49.7188C19.3098 49.7396 19.4973 49.75 19.6744 49.75C19.7681 49.75 19.9035 49.7031 20.0806 49.6094C20.2681 49.5156 20.4556 49.4115 20.6431 49.2969C20.841 49.1719 21.0338 49.0625 21.2213 48.9688C21.4088 48.875 21.5494 48.8281 21.6431 48.8281C21.7369 48.8281 21.8098 48.8594 21.8619 48.9219C21.914 48.9844 21.94 49.0625 21.94 49.1562C21.94 49.3125 21.8202 49.4792 21.5806 49.6562C21.341 49.8333 21.065 50 20.7525 50.1562C20.44 50.3021 20.1379 50.4271 19.8463 50.5312C19.565 50.6354 19.3775 50.6875 19.2838 50.6875C18.9713 50.75 18.6796 50.7552 18.4088 50.7031C18.1379 50.6406 17.9035 50.5417 17.7056 50.4062C17.5077 50.2604 17.341 50.0885 17.2056 49.8906C17.0806 49.6823 17.0025 49.4688 16.9713 49.25L17.1431 48.1719ZM20.0963 43.5156C20.0025 43.5156 19.8931 43.5938 19.7681 43.75C19.6535 43.8958 19.539 44.0677 19.4244 44.2656C19.3098 44.4635 19.2056 44.6562 19.1119 44.8438C19.0285 45.0208 18.9817 45.1406 18.9713 45.2031C18.94 45.276 18.8931 45.3958 18.8306 45.5625C18.7681 45.7292 18.7056 45.9062 18.6431 46.0938C18.5806 46.2708 18.5181 46.4427 18.4556 46.6094C18.4035 46.776 18.3671 46.8958 18.3463 46.9688H18.4244C18.4244 46.9688 18.4556 46.9323 18.5181 46.8594C18.5806 46.776 18.6483 46.6823 18.7213 46.5781C18.8046 46.474 18.8879 46.3698 18.9713 46.2656C19.065 46.151 19.1327 46.0573 19.1744 45.9844C19.216 45.9219 19.2733 45.8281 19.3463 45.7031C19.4192 45.5677 19.466 45.4844 19.4869 45.4531C19.5285 45.3385 19.5858 45.1875 19.6588 45C19.7317 44.8021 19.7994 44.6094 19.8619 44.4219C19.9244 44.2344 19.9765 44.0729 20.0181 43.9375C20.0702 43.7917 20.0963 43.7083 20.0963 43.6875V43.5156ZM25.7444 48.6406C25.6923 48.6927 25.5933 48.7812 25.4475 48.9062C25.3017 49.0312 25.1454 49.1667 24.9788 49.3125C24.8225 49.4479 24.6715 49.5781 24.5256 49.7031C24.3798 49.8177 24.2756 49.8958 24.2131 49.9375C24.1923 49.9479 24.1298 49.9844 24.0256 50.0469C23.9319 50.099 23.8225 50.1667 23.6975 50.25C23.5725 50.3229 23.4423 50.3958 23.3069 50.4688C23.1819 50.5312 23.0829 50.5833 23.01 50.625C22.885 50.6875 22.7965 50.7344 22.7444 50.7656C22.6923 50.7865 22.6142 50.7969 22.51 50.7969C22.3433 50.7969 22.1663 50.7448 21.9788 50.6406C21.8017 50.526 21.7131 50.3698 21.7131 50.1719V48.4844L21.9319 47.3438C22.0465 46.9062 22.1767 46.5521 22.3225 46.2812C22.4683 46 22.6506 45.7708 22.8694 45.5938C23.0881 45.4062 23.3485 45.2656 23.6506 45.1719C23.9631 45.0781 24.3277 44.9896 24.7444 44.9062C24.7652 44.8958 24.8329 44.8698 24.9475 44.8281C25.0621 44.7865 25.1298 44.7604 25.1506 44.75H25.3694C25.536 44.75 25.6819 44.7865 25.8069 44.8594C25.9423 44.9323 26.0725 45.026 26.1975 45.1406L26.9788 41.7969C26.9579 41.6823 26.9579 41.526 26.9788 41.3281C26.9996 41.1198 27.036 40.9115 27.0881 40.7031C27.1506 40.4948 27.2288 40.3177 27.3225 40.1719C27.4163 40.026 27.5256 39.9531 27.6506 39.9531C27.8069 39.9531 27.9267 40.0104 28.01 40.125C28.1038 40.2396 28.135 40.3854 28.1038 40.5625L27.26 45.6719C27.0725 46.1198 26.9319 46.5677 26.8381 47.0156C26.7548 47.4635 26.7131 47.9271 26.7131 48.4062C26.7131 48.625 26.7288 48.8438 26.76 49.0625C26.7913 49.2812 26.8485 49.4792 26.9319 49.6562C27.0256 49.8333 27.1506 49.9792 27.3069 50.0938C27.4631 50.1979 27.6663 50.25 27.9163 50.25C28.4683 50.25 29.0152 50.151 29.5569 49.9531C30.0985 49.7448 30.5777 49.4635 30.9944 49.1094C31.0152 49.1094 31.0308 49.1094 31.0413 49.1094C31.0517 49.099 31.0673 49.0938 31.0881 49.0938C31.1715 49.0938 31.2444 49.1198 31.3069 49.1719C31.3069 49.1927 31.3069 49.224 31.3069 49.2656C31.3173 49.3073 31.3225 49.3385 31.3225 49.3594C31.3225 49.526 31.2548 49.6823 31.1194 49.8281C30.984 49.974 30.8069 50.1094 30.5881 50.2344C30.3798 50.3594 30.1454 50.4688 29.885 50.5625C29.635 50.6562 29.3798 50.7396 29.1194 50.8125C28.8694 50.8854 28.635 50.9375 28.4163 50.9688C28.1975 51 28.0256 51.0156 27.9006 51.0156C27.536 51.0156 27.2288 50.9583 26.9788 50.8438C26.7392 50.7188 26.536 50.5469 26.3694 50.3281C26.2131 50.1094 26.0933 49.8594 26.01 49.5781C25.9267 49.2865 25.8642 48.974 25.8225 48.6406H25.7444ZM22.6975 48.0312C22.6975 48.0938 22.6871 48.1979 22.6663 48.3438C22.6558 48.4896 22.6402 48.651 22.6194 48.8281C22.609 48.9948 22.5933 49.1562 22.5725 49.3125C22.5621 49.4583 22.5517 49.5677 22.5413 49.6406C22.5413 49.6615 22.536 49.7135 22.5256 49.7969C22.5256 49.8802 22.5256 49.9323 22.5256 49.9531C22.6715 49.9531 22.859 49.8958 23.0881 49.7812C23.3173 49.6562 23.5569 49.5 23.8069 49.3125C24.0569 49.1146 24.3121 48.8958 24.5725 48.6562C24.8329 48.4062 25.0621 48.1615 25.26 47.9219C25.4683 47.6823 25.6402 47.4479 25.7756 47.2188C25.911 46.9792 25.9788 46.776 25.9788 46.6094C25.9788 46.5573 25.9371 46.4844 25.8538 46.3906C25.7808 46.2969 25.6923 46.2083 25.5881 46.125C25.4944 46.0417 25.3954 45.9688 25.2913 45.9062C25.1975 45.8438 25.1142 45.8125 25.0413 45.8125C24.8225 45.7396 24.5673 45.7604 24.2756 45.875C23.9944 45.9792 23.7288 46.1458 23.4788 46.375C23.2288 46.5938 23.0256 46.849 22.8694 47.1406C22.7131 47.4323 22.6558 47.7292 22.6975 48.0312ZM31.2206 50.625C31.2519 50.3646 31.2935 50.1198 31.3456 49.8906C31.3977 49.651 31.455 49.4167 31.5175 49.1875C31.58 48.9583 31.6477 48.724 31.7206 48.4844C31.804 48.2344 31.8925 47.9531 31.9863 47.6406V47.5625C31.5696 47.8021 31.2727 47.9219 31.0956 47.9219C30.929 47.9219 30.8456 47.8594 30.8456 47.7344C30.8352 47.6094 30.8873 47.4427 31.0019 47.2344C31.1269 47.026 31.2727 46.8333 31.4394 46.6562C31.6165 46.4792 31.7935 46.3385 31.9706 46.2344C32.1581 46.1302 32.304 46.1146 32.4081 46.1875C32.5331 46.1875 32.6321 46.2083 32.705 46.25C32.7883 46.2917 32.8769 46.3542 32.9706 46.4375C33.2102 46.25 33.4342 46.099 33.6425 45.9844C33.8508 45.8698 34.1008 45.8125 34.3925 45.8125C34.8508 45.8125 35.1946 45.9167 35.4238 46.125C35.6633 46.3333 35.8352 46.6667 35.9394 47.125C36.1165 46.9479 36.2779 46.7865 36.4238 46.6406C36.5696 46.4844 36.7258 46.3542 36.8925 46.25C37.0696 46.1354 37.2571 46.0521 37.455 46C37.6529 45.9375 37.8769 45.9062 38.1269 45.9062C38.3352 45.9062 38.5383 45.9844 38.7363 46.1406C38.9342 46.2969 39.0748 46.4688 39.1581 46.6562C39.1581 46.6979 39.1581 46.7917 39.1581 46.9375C39.1581 47.0833 39.1581 47.1823 39.1581 47.2344C39.1581 47.5885 39.1165 47.9323 39.0331 48.2656C38.9498 48.5885 38.9081 48.9219 38.9081 49.2656C38.9081 49.4115 38.9238 49.5625 38.955 49.7188C38.9967 49.8646 39.1113 49.9375 39.2988 49.9375C39.5488 49.9375 39.7727 49.8854 39.9706 49.7812C40.179 49.6771 40.3665 49.5521 40.5331 49.4062C40.7102 49.25 40.8665 49.0833 41.0019 48.9062C41.1477 48.7292 41.2779 48.5677 41.3925 48.4219C41.5175 48.2656 41.6321 48.1354 41.7363 48.0312C41.8404 47.9271 41.9446 47.875 42.0488 47.875C42.1217 47.875 42.1998 47.9062 42.2831 47.9688C42.3769 48.0208 42.4238 48.0885 42.4238 48.1719C42.4238 48.1823 42.4185 48.1979 42.4081 48.2188C42.4081 48.2396 42.4081 48.2552 42.4081 48.2656C42.304 48.5885 42.1529 48.8958 41.955 49.1875C41.7571 49.4792 41.5279 49.7396 41.2675 49.9688C41.0071 50.1875 40.7154 50.3646 40.3925 50.5C40.08 50.625 39.7467 50.6875 39.3925 50.6875C39.0592 50.6875 38.7779 50.6458 38.5488 50.5625C38.3196 50.4688 38.1425 50.2604 38.0175 49.9375C38.0175 49.9062 38.0123 49.8385 38.0019 49.7344C38.0019 49.6198 38.0019 49.5521 38.0019 49.5312C38.0019 49.1354 38.0383 48.7552 38.1113 48.3906C38.1946 48.026 38.2363 47.6562 38.2363 47.2812C38.2363 47.25 38.231 47.1823 38.2206 47.0781C38.2206 46.974 38.2206 46.9062 38.2206 46.875C38.179 46.8229 38.1113 46.7969 38.0175 46.7969C37.9342 46.7969 37.856 46.7969 37.7831 46.7969C37.5644 46.7969 37.356 46.875 37.1581 47.0312C36.9602 47.1875 36.7779 47.3854 36.6113 47.625C36.4446 47.8646 36.2935 48.1354 36.1581 48.4375C36.0331 48.7292 35.9238 49.026 35.83 49.3281C35.7363 49.6198 35.6581 49.8958 35.5956 50.1562C35.5435 50.4062 35.5123 50.6146 35.5019 50.7812L35.33 50.9375H34.7988C34.705 50.9375 34.6529 50.8906 34.6425 50.7969C34.6425 50.6927 34.6425 50.6146 34.6425 50.5625C34.6425 50.3125 34.6581 50.0625 34.6894 49.8125C34.731 49.5521 34.7727 49.2969 34.8144 49.0469C34.8665 48.7865 34.9133 48.526 34.955 48.2656C34.9967 48.0052 35.0227 47.75 35.0331 47.5C35.0227 47.4167 35.0123 47.3281 35.0019 47.2344C34.9915 47.1302 34.9706 47.0365 34.9394 46.9531C34.9081 46.8698 34.8613 46.8021 34.7988 46.75C34.7363 46.6875 34.6477 46.6562 34.5331 46.6562C34.3665 46.6562 34.205 46.6875 34.0488 46.75C33.8925 46.8125 33.7467 46.8958 33.6113 47C33.4863 47.0938 33.3717 47.2135 33.2675 47.3594C33.1738 47.4948 33.106 47.6458 33.0644 47.8125L32.1269 50.8438L31.9863 51C31.9863 51 31.955 51 31.8925 51C31.83 51.0104 31.7831 51.0156 31.7519 51.0156C31.6373 51.0156 31.5175 51.0052 31.3925 50.9844C31.2779 50.9531 31.2206 50.8542 31.2206 50.6875V50.625ZM42.3219 47.7188C42.3323 47.6667 42.3635 47.5729 42.4156 47.4375C42.4677 47.3021 42.5198 47.1562 42.5719 47C42.6344 46.8438 42.6917 46.6979 42.7438 46.5625C42.7958 46.4271 42.8323 46.3333 42.8531 46.2812C42.9156 46.1146 42.9729 46.0052 43.025 45.9531C43.0875 45.901 43.1969 45.875 43.3531 45.875C43.5198 45.875 43.6292 45.9323 43.6813 46.0469C43.7333 46.1615 43.7594 46.2969 43.7594 46.4531C43.7594 46.724 43.7177 46.974 43.6344 47.2031C43.5615 47.4219 43.4781 47.6458 43.3844 47.875C43.2906 48.0938 43.2021 48.3333 43.1188 48.5938C43.0458 48.8438 43.0094 49.1354 43.0094 49.4688C43.0094 49.5104 43.0094 49.5729 43.0094 49.6562C43.0094 49.7292 43.0146 49.8073 43.025 49.8906C43.0354 49.9635 43.0563 50.0312 43.0875 50.0938C43.1188 50.1458 43.1604 50.1719 43.2125 50.1719C43.4833 50.1719 43.7542 50.1198 44.025 50.0156C44.3063 49.901 44.5771 49.7708 44.8375 49.625C45.1083 49.4688 45.3635 49.3021 45.6031 49.125C45.8531 48.9375 46.0771 48.776 46.275 48.6406C46.3479 48.5885 46.4 48.5365 46.4313 48.4844C46.4729 48.4323 46.5094 48.3854 46.5406 48.3438C46.5719 48.2917 46.6083 48.25 46.65 48.2188C46.7021 48.1771 46.7802 48.1562 46.8844 48.1562C47.0198 48.1562 47.1292 48.1875 47.2125 48.25C47.3063 48.3021 47.3531 48.401 47.3531 48.5469C47.3531 48.6094 47.3479 48.6667 47.3375 48.7188C47.3375 48.7708 47.3115 48.8177 47.2594 48.8594C47.249 48.8906 47.2073 48.9323 47.1344 48.9844C47.0719 49.0365 47.0042 49.0938 46.9313 49.1562C46.8583 49.2083 46.7906 49.2604 46.7281 49.3125C46.6656 49.3542 46.6188 49.3802 46.5875 49.3906C46.5771 49.3906 46.5458 49.4062 46.4938 49.4375C46.4521 49.4583 46.426 49.4688 46.4156 49.4688C46.4052 49.4792 46.3896 49.4948 46.3688 49.5156C46.3583 49.526 46.3531 49.5365 46.3531 49.5469C46.1344 49.7135 45.8948 49.8854 45.6344 50.0625C45.3844 50.2292 45.1188 50.3854 44.8375 50.5312C44.5563 50.6667 44.2646 50.7812 43.9625 50.875C43.6708 50.9688 43.3792 51.0156 43.0875 51.0156C42.8375 51.0156 42.6448 50.9531 42.5094 50.8281C42.3844 50.6927 42.2906 50.526 42.2281 50.3281C42.1656 50.1302 42.1292 49.9219 42.1188 49.7031C42.1083 49.4844 42.1031 49.2865 42.1031 49.1094L42.3219 47.7188ZM43.0719 43.6094C43.0719 43.4219 43.1083 43.2969 43.1813 43.2344C43.2542 43.1719 43.3844 43.1406 43.5719 43.1406C43.6656 43.1406 43.7594 43.1615 43.8531 43.2031C43.9469 43.2344 43.9938 43.3177 43.9938 43.4531C43.9938 43.5885 43.926 43.7135 43.7906 43.8281C43.6656 43.9427 43.5406 44 43.4156 44C43.2906 44 43.2021 43.9635 43.15 43.8906C43.0979 43.8073 43.0719 43.7135 43.0719 43.6094ZM48.0169 50.6875L48.5481 47.5625V47.125L48.8606 45.0469C48.8919 45.0052 48.9492 44.9844 49.0325 44.9844C49.1158 44.974 49.1731 44.9688 49.2044 44.9688C49.2877 44.9688 49.3815 45 49.4856 45.0625C49.6002 45.1146 49.6575 45.1875 49.6575 45.2812V46.3438C49.6992 46.3125 49.7721 46.25 49.8763 46.1562C49.9804 46.0625 50.0898 45.9635 50.2044 45.8594C50.3294 45.7552 50.444 45.6562 50.5481 45.5625C50.6523 45.4688 50.72 45.401 50.7513 45.3594C50.8658 45.2552 51.0013 45.1667 51.1575 45.0938C51.3242 45.0208 51.4804 44.9844 51.6263 44.9844C51.9283 44.9844 52.1627 45.0781 52.3294 45.2656C52.5065 45.4531 52.595 45.6927 52.595 45.9844C52.595 46.0052 52.5898 46.0208 52.5794 46.0312C52.5794 46.0312 52.5794 46.0417 52.5794 46.0625V46.125L51.9856 48.7969V50.0625C52.3085 50.0625 52.6419 50 52.9856 49.875C53.3398 49.7396 53.6783 49.5729 54.0013 49.375C54.3242 49.1771 54.6263 48.9531 54.9075 48.7031C55.1888 48.4427 55.4335 48.1927 55.6419 47.9531H55.7044C55.7773 47.9531 55.8346 47.9792 55.8763 48.0312C55.9283 48.0729 55.9544 48.1302 55.9544 48.2031C55.9544 48.4323 55.8763 48.6615 55.72 48.8906C55.5742 49.1094 55.3815 49.3177 55.1419 49.5156C54.9127 49.7135 54.6419 49.901 54.3294 50.0781C54.0273 50.2552 53.7252 50.4062 53.4231 50.5312C53.1315 50.6562 52.845 50.7552 52.5638 50.8281C52.2825 50.901 52.0429 50.9375 51.845 50.9375C51.6471 50.9375 51.4908 50.901 51.3763 50.8281C51.2617 50.7552 51.1731 50.6615 51.1106 50.5469C51.0585 50.4219 51.0221 50.2865 51.0013 50.1406C50.9908 49.9948 50.9856 49.8385 50.9856 49.6719V49.4688L51.595 46.4375V45.9219C51.345 45.9219 51.095 46.0312 50.845 46.25C50.6054 46.4688 50.3867 46.7344 50.1888 47.0469C50.0013 47.3594 49.8346 47.6771 49.6888 48C49.5533 48.3229 49.4544 48.5885 49.3919 48.7969C49.371 48.8698 49.3398 49 49.2981 49.1875C49.2565 49.375 49.2148 49.5729 49.1731 49.7812C49.1419 49.9896 49.1106 50.1875 49.0794 50.375C49.0481 50.5625 49.0273 50.6979 49.0169 50.7812C49.0273 50.8438 49.0065 50.8906 48.9544 50.9219C48.9127 50.9531 48.8606 50.9792 48.7981 51C48.7356 51.0104 48.6679 51.0156 48.595 51.0156C48.5325 51.0156 48.4804 51.0156 48.4388 51.0156C48.345 51.0156 48.2513 51 48.1575 50.9688C48.0638 50.9375 48.0169 50.8594 48.0169 50.7344V50.6875ZM55.6494 48.5625C55.6702 48.5 55.7015 48.3906 55.7431 48.2344C55.7952 48.0677 55.8421 47.8906 55.8838 47.7031C55.9358 47.5156 55.9775 47.3385 56.0088 47.1719C56.0504 46.9948 56.0817 46.875 56.1025 46.8125C56.165 46.5625 56.2379 46.2917 56.3213 46C56.415 45.7083 56.54 45.4375 56.6963 45.1875C56.8525 44.9375 57.0504 44.7344 57.29 44.5781C57.54 44.4115 57.8473 44.3281 58.2119 44.3281C58.3473 44.3281 58.441 44.3802 58.4931 44.4844C58.5556 44.5781 58.6077 44.6823 58.6494 44.7969C58.6494 44.8385 58.6494 44.9167 58.6494 45.0312C58.6598 45.1354 58.665 45.2083 58.665 45.25C58.665 45.6979 58.6181 46.0938 58.5244 46.4375C58.441 46.7812 58.3056 47.099 58.1181 47.3906C57.941 47.6823 57.7223 47.9583 57.4619 48.2188C57.2015 48.4688 56.9046 48.7344 56.5713 49.0156C56.5608 49.0469 56.5452 49.099 56.5244 49.1719C56.5035 49.2448 56.4931 49.2969 56.4931 49.3281V49.3594C56.4931 49.5469 56.5244 49.6979 56.5869 49.8125C56.6494 49.9271 56.7327 50.0208 56.8369 50.0938C56.9515 50.1562 57.0765 50.1979 57.2119 50.2188C57.3577 50.2292 57.514 50.2344 57.6806 50.2344C58.1702 50.2344 58.639 50.1667 59.0869 50.0312C59.5348 49.8958 59.9463 49.6771 60.3213 49.375C60.3733 49.3229 60.4358 49.25 60.5088 49.1562C60.5921 49.0521 60.6754 48.9479 60.7588 48.8438C60.8421 48.7396 60.9306 48.651 61.0244 48.5781C61.1181 48.4948 61.2171 48.4531 61.3213 48.4531C61.4254 48.4531 61.4879 48.4948 61.5088 48.5781C61.5296 48.6615 61.54 48.7448 61.54 48.8281C61.54 49.0573 61.4671 49.276 61.3213 49.4844C61.1858 49.6823 61.0035 49.8646 60.7744 50.0312C60.5556 50.1875 60.3004 50.3281 60.0088 50.4531C59.7275 50.5781 59.4463 50.6823 59.165 50.7656C58.8838 50.849 58.6129 50.9115 58.3525 50.9531C58.1025 50.9948 57.889 51.0156 57.7119 51.0156C57.1598 51.0156 56.6963 50.9271 56.3213 50.75C55.9567 50.5625 55.7067 50.1927 55.5713 49.6406L55.6494 48.5625ZM57.8838 45.4844C57.6754 45.6719 57.5088 45.8438 57.3838 46C57.2692 46.1458 57.1754 46.3021 57.1025 46.4688C57.04 46.625 56.9827 46.7969 56.9306 46.9844C56.889 47.1719 56.8421 47.3906 56.79 47.6406C56.9879 47.4844 57.1494 47.3281 57.2744 47.1719C57.4098 47.0156 57.5192 46.8542 57.6025 46.6875C57.6858 46.5208 57.7483 46.3438 57.79 46.1562C57.8317 45.9583 57.8629 45.7344 57.8838 45.4844ZM68.8206 56.0312C68.8206 56 68.8206 55.9479 68.8206 55.875C68.8206 55.8125 68.8206 55.7448 68.8206 55.6719C68.8206 55.6094 68.8206 55.5521 68.8206 55.5C68.8206 55.4583 68.8206 55.4323 68.8206 55.4219L69.3675 50.5312C69.4404 50.1458 69.5029 49.8438 69.555 49.625C69.6071 49.3958 69.6488 49.224 69.68 49.1094C69.7217 48.9844 69.7633 48.901 69.805 48.8594L70.9456 45.2031C70.9873 45.0781 71.0654 44.901 71.18 44.6719C71.2946 44.4323 71.4248 44.1979 71.5706 43.9688C71.7269 43.7396 71.8935 43.5469 72.0706 43.3906C72.2477 43.224 72.4248 43.1406 72.6019 43.1406C72.6748 43.1406 72.7373 43.1667 72.7894 43.2188C72.8415 43.2708 72.8831 43.3333 72.9144 43.4062C72.956 43.4792 72.9821 43.5573 72.9925 43.6406C73.0133 43.724 73.0238 43.7917 73.0238 43.8438C73.0238 44.3229 72.956 44.8125 72.8206 45.3125C72.6956 45.8125 72.529 46.3073 72.3206 46.7969C72.1123 47.276 71.8623 47.7344 71.5706 48.1719C71.279 48.6094 70.9717 48.9948 70.6488 49.3281L70.4144 50.1719C71.5915 50.151 72.7321 49.9583 73.8363 49.5938C74.9508 49.2292 76.0185 48.7812 77.0394 48.25H77.1175C77.2113 48.25 77.2738 48.2865 77.305 48.3594C77.3467 48.4219 77.3675 48.4896 77.3675 48.5625C77.3675 48.6458 77.3519 48.7188 77.3206 48.7812C77.2894 48.8438 77.2217 48.901 77.1175 48.9531C76.2946 49.4635 75.4144 49.8802 74.4769 50.2031C73.5394 50.526 72.5915 50.7708 71.6331 50.9375C71.8206 51.1458 71.9769 51.3177 72.1019 51.4531C72.2269 51.5885 72.3258 51.724 72.3988 51.8594C72.4821 52.0052 72.5394 52.1719 72.5706 52.3594C72.6123 52.5469 72.6331 52.8021 72.6331 53.125C72.6331 53.9375 72.4404 54.6458 72.055 55.25C71.68 55.8646 71.1852 56.4323 70.5706 56.9531C70.4248 57.0677 70.2425 57.1875 70.0238 57.3125C69.8154 57.4375 69.6123 57.5 69.4144 57.5C69.2373 57.5 69.1071 57.4427 69.0238 57.3281C68.9404 57.2135 68.8831 57.0781 68.8519 56.9219C68.8206 56.776 68.8102 56.6198 68.8206 56.4531C68.8206 56.2865 68.8206 56.1458 68.8206 56.0312ZM70.1019 51.6094C70.0602 51.9323 70.0133 52.2969 69.9613 52.7031C69.9092 53.1094 69.8623 53.526 69.8206 53.9531C69.779 54.3802 69.7425 54.8073 69.7113 55.2344C69.68 55.6615 69.6644 56.0625 69.6644 56.4375C69.9456 56.4375 70.2165 56.3125 70.4769 56.0625C70.7477 55.8229 70.9873 55.526 71.1956 55.1719C71.404 54.8281 71.5758 54.474 71.7113 54.1094C71.8467 53.7448 71.9196 53.4427 71.93 53.2031C71.9508 52.9115 71.93 52.6615 71.8675 52.4531C71.8154 52.2552 71.7269 52.0833 71.6019 51.9375C71.4769 51.8021 71.3154 51.6875 71.1175 51.5938C70.9196 51.5 70.6852 51.4062 70.4144 51.3125H70.3363C70.2633 51.3125 70.2113 51.3438 70.18 51.4062C70.1488 51.4688 70.1227 51.5365 70.1019 51.6094ZM72.0238 44.9062C72.0133 44.9062 71.9925 44.9479 71.9613 45.0312C71.93 45.1042 71.8883 45.1875 71.8363 45.2812C71.7946 45.375 71.7529 45.474 71.7113 45.5781C71.68 45.6823 71.654 45.7604 71.6331 45.8125C71.6019 45.8958 71.5654 46.0052 71.5238 46.1406C71.4821 46.2656 71.4404 46.3958 71.3988 46.5312C71.3675 46.6562 71.3363 46.7708 71.305 46.875C71.2738 46.9688 71.2581 47.0208 71.2581 47.0312V47.125C71.456 46.7708 71.6383 46.401 71.805 46.0156C71.9717 45.6198 72.0654 45.224 72.0863 44.8281L72.0238 44.9062ZM77.3906 49.7812C77.3906 49.7708 77.3958 49.7344 77.4062 49.6719C77.4167 49.6094 77.4271 49.5469 77.4375 49.4844C77.4479 49.4115 77.4583 49.349 77.4688 49.2969C77.4792 49.2344 77.4844 49.1927 77.4844 49.1719V49.1094V49.0156L77.7031 48.0312C77.8802 47.6562 78.0625 47.2969 78.25 46.9531C78.4479 46.6094 78.6719 46.3073 78.9219 46.0469C79.1719 45.7865 79.4583 45.5781 79.7812 45.4219C80.1146 45.2656 80.5156 45.1875 80.9844 45.1875C81.0781 45.1875 81.1927 45.2188 81.3281 45.2812C81.474 45.3333 81.6146 45.401 81.75 45.4844C81.8958 45.5677 82.026 45.6562 82.1406 45.75C82.2656 45.8333 82.3594 45.9115 82.4219 45.9844C82.7448 45.9323 82.9792 45.9062 83.125 45.9062C83.2708 45.8958 83.3958 45.8906 83.5 45.8906C83.6042 45.8802 83.7135 45.8594 83.8281 45.8281C83.9531 45.7969 84.1406 45.7292 84.3906 45.625C84.5677 45.5729 84.7396 45.5469 84.9062 45.5469C84.9792 45.5469 85.0469 45.5781 85.1094 45.6406C85.1823 45.7031 85.2188 45.776 85.2188 45.8594C85.2188 45.9635 85.1823 46.0573 85.1094 46.1406C85.0365 46.224 84.9479 46.276 84.8438 46.2969L82.8906 46.7344L82.7188 46.8125C82.7083 47.375 82.5833 47.9115 82.3438 48.4219C82.1042 48.9323 81.7865 49.3802 81.3906 49.7656C80.9948 50.151 80.5365 50.4583 80.0156 50.6875C79.4948 50.9062 78.9531 51.0156 78.3906 51.0156C78.349 51.0156 78.2812 51.0104 78.1875 51C78.0938 51 78.0312 51 78 51C77.7708 50.9062 77.6094 50.7344 77.5156 50.4844C77.4323 50.2344 77.3906 50 77.3906 49.7812ZM78.3906 50.0938C78.401 50.1458 78.4427 50.1719 78.5156 50.1719C78.5885 50.1719 78.6406 50.1719 78.6719 50.1719C79.0469 50.1719 79.4323 50.0781 79.8281 49.8906C80.224 49.6927 80.5781 49.4427 80.8906 49.1406C81.2135 48.8281 81.474 48.4792 81.6719 48.0938C81.8802 47.6979 81.9844 47.3021 81.9844 46.9062C81.651 46.9062 81.3177 46.8802 80.9844 46.8281C80.651 46.7656 80.3281 46.7344 80.0156 46.7344H80L78.7031 48.1094C78.6302 48.1823 78.5729 48.2812 78.5312 48.4062C78.4896 48.5312 78.4583 48.6667 78.4375 48.8125C78.4167 48.9583 78.401 49.1042 78.3906 49.25C78.3802 49.3958 78.375 49.526 78.375 49.6406C78.375 49.6719 78.375 49.7448 78.375 49.8594C78.375 49.974 78.3802 50.0521 78.3906 50.0938ZM84.6794 49.1406C84.971 48.9219 85.1846 48.7083 85.32 48.5C85.4658 48.2917 85.5804 48.0833 85.6637 47.875C85.7471 47.6667 85.8148 47.4479 85.8669 47.2188C85.919 46.9792 86.0023 46.7188 86.1169 46.4375C86.0752 46.3646 86.0492 46.3021 86.0387 46.25C86.0387 46.1875 86.0387 46.1146 86.0387 46.0312C86.0387 45.9479 86.0492 45.849 86.07 45.7344C86.1012 45.6198 86.1429 45.5156 86.195 45.4219C86.2471 45.3177 86.3096 45.2292 86.3825 45.1562C86.4554 45.0833 86.544 45.0469 86.6481 45.0469C86.6377 45.0885 86.695 45.1354 86.82 45.1875C86.9554 45.2396 87.1169 45.2969 87.3044 45.3594C87.5023 45.4219 87.7106 45.4896 87.9294 45.5625C88.1481 45.6354 88.3408 45.7135 88.5075 45.7969C88.695 45.901 88.8252 46.0156 88.8981 46.1406C88.9815 46.2552 89.0231 46.4219 89.0231 46.6406C89.0231 46.8385 88.9971 47.0625 88.945 47.3125C88.9033 47.5625 88.8565 47.8177 88.8044 48.0781C88.7627 48.3281 88.7158 48.5833 88.6637 48.8438C88.6221 49.0938 88.6012 49.3229 88.6012 49.5312V49.9375C88.5908 50.0312 88.6117 50.0833 88.6637 50.0938C88.7262 50.0938 88.7835 50.0938 88.8356 50.0938C88.9606 50.0938 89.0752 50.0729 89.1794 50.0312C89.2835 49.9896 89.3877 49.9427 89.4919 49.8906C89.6065 49.8385 89.7158 49.7917 89.82 49.75C89.9242 49.6979 90.0335 49.6615 90.1481 49.6406L91.5231 48.7969C91.5648 48.724 91.6169 48.6667 91.6794 48.625C91.7523 48.5729 91.82 48.526 91.8825 48.4844C91.9867 48.4219 92.1117 48.3333 92.2575 48.2188C92.3304 48.1562 92.4085 48.0938 92.4919 48.0312H92.9606C92.9919 48.0312 93.0127 48.0625 93.0231 48.125C93.0335 48.1875 93.0387 48.2344 93.0387 48.2656C93.0387 48.3906 92.9502 48.5469 92.7731 48.7344C92.596 48.9219 92.3669 49.1146 92.0856 49.3125C91.8044 49.5104 91.4919 49.7083 91.1481 49.9062C90.8044 50.0938 90.4658 50.2656 90.1325 50.4219C89.8096 50.5781 89.5075 50.7031 89.2262 50.7969C88.9554 50.8906 88.7471 50.9375 88.6012 50.9375C88.4137 50.9375 88.2627 50.8906 88.1481 50.7969C88.0335 50.7031 87.9398 50.5885 87.8669 50.4531C87.794 50.3177 87.7419 50.1719 87.7106 50.0156C87.6898 49.849 87.6794 49.6875 87.6794 49.5312C87.6794 49.4167 87.7158 49.2552 87.7887 49.0469C87.8617 48.8385 87.945 48.625 88.0387 48.4062C88.1325 48.1875 88.2158 47.974 88.2887 47.7656C88.3617 47.5573 88.3981 47.3906 88.3981 47.2656C88.3981 47.2552 88.32 47.2135 88.1637 47.1406C88.0179 47.0677 87.8565 46.9896 87.6794 46.9062C87.5023 46.8125 87.3356 46.7344 87.1794 46.6719C87.0335 46.599 86.9606 46.5573 86.9606 46.5469C86.7315 46.7865 86.57 47.0417 86.4762 47.3125C86.3929 47.5833 86.3044 47.8646 86.2106 48.1562C86.1273 48.4479 85.9971 48.7396 85.82 49.0312C85.6533 49.3229 85.3669 49.6094 84.9606 49.8906C84.9502 49.8906 84.9294 49.8854 84.8981 49.875C84.8565 49.8646 84.82 49.8385 84.7887 49.7969C84.7471 49.7448 84.7158 49.6719 84.695 49.5781C84.6742 49.474 84.669 49.3281 84.6794 49.1406ZM100.851 48.7969C100.767 48.8385 100.679 48.8646 100.585 48.875C100.491 48.875 100.398 48.875 100.304 48.875C100.21 48.875 100.116 48.8802 100.023 48.8906C99.9288 48.8906 99.835 48.9115 99.7413 48.9531C99.5642 48.974 99.4496 48.9635 99.3975 48.9219C99.3454 48.8698 99.3298 48.8021 99.3506 48.7188C99.3715 48.6354 99.4288 48.5417 99.5225 48.4375C99.6163 48.3333 99.7256 48.2448 99.8506 48.1719C99.9652 48.099 100.09 48.0469 100.226 48.0156C100.371 47.9844 100.502 47.9896 100.616 48.0312C100.564 47.8438 100.569 47.6823 100.632 47.5469C100.694 47.4115 100.819 47.3438 101.007 47.3438C101.101 47.3438 101.184 47.3542 101.257 47.375C101.34 47.3854 101.403 47.4271 101.444 47.5C101.601 47.4062 101.809 47.25 102.069 47.0312C102.33 46.8021 102.595 46.5729 102.866 46.3438C103.148 46.1042 103.403 45.8958 103.632 45.7188C103.861 45.5312 104.017 45.4375 104.101 45.4375C104.132 45.4375 104.174 45.4427 104.226 45.4531C104.278 45.4531 104.33 45.4635 104.382 45.4844C104.444 45.5052 104.491 45.5312 104.523 45.5625C104.564 45.5833 104.585 45.6198 104.585 45.6719V46.3438C104.512 46.6354 104.439 46.9115 104.366 47.1719C104.304 47.4219 104.246 47.6719 104.194 47.9219C104.153 48.1615 104.121 48.4062 104.101 48.6562C104.08 48.9062 104.069 49.1719 104.069 49.4531C104.236 49.4531 104.434 49.4167 104.663 49.3438C104.903 49.2708 105.142 49.1823 105.382 49.0781C105.621 48.974 105.845 48.8698 106.054 48.7656C106.262 48.651 106.429 48.5573 106.554 48.4844C106.575 48.474 106.621 48.4375 106.694 48.375C106.767 48.3125 106.845 48.25 106.929 48.1875C107.012 48.1146 107.09 48.0521 107.163 48C107.246 47.9375 107.299 47.8958 107.319 47.875C107.34 47.8542 107.392 47.8281 107.476 47.7969C107.559 47.7552 107.606 47.7292 107.616 47.7188C107.658 47.7083 107.694 47.724 107.726 47.7656C107.767 47.7969 107.804 47.8385 107.835 47.8906C107.866 47.9323 107.887 47.9792 107.898 48.0312C107.918 48.0729 107.929 48.099 107.929 48.1094C107.929 48.2135 107.887 48.3177 107.804 48.4219C107.72 48.526 107.621 48.625 107.507 48.7188C107.392 48.8021 107.273 48.8854 107.148 48.9688C107.033 49.0417 106.944 49.1094 106.882 49.1719C106.799 49.2135 106.653 49.2812 106.444 49.375C106.246 49.4688 106.033 49.5677 105.804 49.6719C105.575 49.776 105.356 49.875 105.148 49.9688C104.95 50.0625 104.809 50.1302 104.726 50.1719C104.705 50.1823 104.658 50.1979 104.585 50.2188C104.512 50.2292 104.434 50.25 104.351 50.2812C104.267 50.3125 104.184 50.3385 104.101 50.3594C104.028 50.3698 103.981 50.3802 103.96 50.3906C103.866 50.4219 103.793 50.474 103.741 50.5469C103.7 50.6198 103.653 50.6927 103.601 50.7656C103.559 50.8385 103.502 50.901 103.429 50.9531C103.366 51.0052 103.262 51.0208 103.116 51C103.106 50.9896 103.059 50.9688 102.976 50.9375C102.903 50.8958 102.856 50.8646 102.835 50.8438C102.585 50.6667 102.371 50.5 102.194 50.3438C102.017 50.1875 101.856 50.0365 101.71 49.8906C101.564 49.7344 101.424 49.5677 101.288 49.3906C101.163 49.2135 101.017 49.0156 100.851 48.7969ZM101.835 48.1719C101.908 48.3281 101.976 48.4792 102.038 48.625C102.111 48.7708 102.194 48.9115 102.288 49.0469C102.382 49.1719 102.486 49.2812 102.601 49.375C102.726 49.4688 102.877 49.526 103.054 49.5469C103.075 49.3906 103.101 49.2031 103.132 48.9844C103.163 48.7656 103.2 48.5365 103.241 48.2969C103.283 48.0573 103.33 47.8229 103.382 47.5938C103.444 47.3542 103.512 47.1458 103.585 46.9688H103.429C103.262 47.0833 103.106 47.1979 102.96 47.3125C102.825 47.4167 102.689 47.5208 102.554 47.625C102.418 47.7188 102.309 47.8021 102.226 47.875C102.215 47.8854 102.2 47.901 102.179 47.9219C102.158 47.9427 102.142 47.9531 102.132 47.9531C102.121 47.974 102.075 48.0104 101.991 48.0625C101.908 48.1146 101.856 48.151 101.835 48.1719ZM103.585 46.7344C103.554 46.7344 103.538 46.7604 103.538 46.8125C103.538 46.8542 103.554 46.875 103.585 46.875C103.627 46.875 103.648 46.8542 103.648 46.8125C103.648 46.7604 103.627 46.7344 103.585 46.7344ZM107.061 54.3281C107.061 54.026 107.098 53.6875 107.171 53.3125C107.244 52.9479 107.322 52.5781 107.405 52.2031C107.488 51.8385 107.566 51.4792 107.639 51.125C107.712 50.7708 107.749 50.4375 107.749 50.125V50L108.124 48.9531C108.259 48.651 108.415 48.3385 108.593 48.0156C108.77 47.6927 108.968 47.3958 109.186 47.125C109.415 46.8438 109.676 46.6094 109.968 46.4219C110.259 46.224 110.587 46.099 110.952 46.0469C111.077 46.026 111.212 46.0521 111.358 46.125C111.504 46.1875 111.639 46.2708 111.764 46.375C111.9 46.4792 112.009 46.599 112.093 46.7344C112.176 46.8698 112.228 47 112.249 47.125C112.249 47.1458 112.249 47.1875 112.249 47.25C112.249 47.3125 112.249 47.3802 112.249 47.4531C112.249 47.526 112.249 47.5938 112.249 47.6562C112.249 47.7188 112.249 47.7656 112.249 47.7969C112.249 48.0885 112.207 48.3698 112.124 48.6406C112.04 48.9115 111.999 49.1719 111.999 49.4219V49.4688C112.03 49.4479 112.103 49.4115 112.218 49.3594C112.332 49.3073 112.462 49.25 112.608 49.1875C112.764 49.125 112.931 49.0573 113.108 48.9844C113.296 48.9115 113.473 48.8438 113.639 48.7812C113.806 48.7188 113.952 48.6719 114.077 48.6406C114.212 48.599 114.306 48.5781 114.358 48.5781C114.483 48.5781 114.556 48.599 114.577 48.6406C114.608 48.6719 114.624 48.7292 114.624 48.8125C114.624 48.9271 114.556 49.0417 114.421 49.1562C114.285 49.2708 114.108 49.3802 113.889 49.4844C113.681 49.5885 113.447 49.6875 113.186 49.7812C112.936 49.8646 112.691 49.9427 112.452 50.0156C112.223 50.0885 112.02 50.1615 111.843 50.2344C111.665 50.2969 111.546 50.3438 111.483 50.375C111.369 50.4583 111.259 50.5469 111.155 50.6406C111.061 50.7344 110.962 50.8177 110.858 50.8906C110.754 50.9635 110.645 51.026 110.53 51.0781C110.415 51.1302 110.285 51.1562 110.139 51.1562C109.921 51.1562 109.707 51.099 109.499 50.9844C109.301 50.8594 109.119 50.7344 108.952 50.6094L108.874 50.6719C108.874 50.6823 108.837 50.8229 108.764 51.0938C108.702 51.3646 108.624 51.6771 108.53 52.0312C108.447 52.3958 108.358 52.7552 108.264 53.1094C108.181 53.4635 108.113 53.7396 108.061 53.9375C108.04 54.0521 108.025 54.1667 108.014 54.2812C108.004 54.4062 107.978 54.5208 107.936 54.625C107.905 54.7396 107.848 54.8333 107.764 54.9062C107.681 54.9792 107.566 55.0156 107.421 55.0156H107.218C107.155 54.8906 107.113 54.776 107.093 54.6719C107.072 54.5781 107.061 54.4635 107.061 54.3281ZM109.155 49.7188C109.27 49.7917 109.389 49.8333 109.514 49.8438C109.639 49.8542 109.759 49.8542 109.874 49.8438C109.999 49.8229 110.119 49.7969 110.233 49.7656C110.358 49.7344 110.478 49.7188 110.593 49.7188C110.613 49.7188 110.66 49.7188 110.733 49.7188C110.806 49.7083 110.848 49.7031 110.858 49.7031C110.983 49.6406 111.082 49.526 111.155 49.3594C111.228 49.1927 111.28 49.0156 111.311 48.8281C111.353 48.6406 111.379 48.4583 111.389 48.2812C111.4 48.0938 111.405 47.9479 111.405 47.8438C111.405 47.75 111.4 47.651 111.389 47.5469C111.379 47.4427 111.353 47.349 111.311 47.2656C111.28 47.1719 111.233 47.0938 111.171 47.0312C111.108 46.9688 111.02 46.9375 110.905 46.9375C110.884 46.9375 110.848 46.9427 110.796 46.9531C110.754 46.9531 110.723 46.9531 110.702 46.9531C110.66 47.0781 110.572 47.25 110.436 47.4688C110.311 47.6771 110.176 47.8958 110.03 48.125C109.895 48.3542 109.77 48.5781 109.655 48.7969C109.54 49.0052 109.483 49.1667 109.483 49.2812L109.155 49.7188ZM114.647 48.5625C114.668 48.5 114.699 48.3906 114.741 48.2344C114.793 48.0677 114.84 47.8906 114.881 47.7031C114.933 47.5156 114.975 47.3385 115.006 47.1719C115.048 46.9948 115.079 46.875 115.1 46.8125C115.163 46.5625 115.235 46.2917 115.319 46C115.413 45.7083 115.538 45.4375 115.694 45.1875C115.85 44.9375 116.048 44.7344 116.288 44.5781C116.538 44.4115 116.845 44.3281 117.209 44.3281C117.345 44.3281 117.439 44.3802 117.491 44.4844C117.553 44.5781 117.605 44.6823 117.647 44.7969C117.647 44.8385 117.647 44.9167 117.647 45.0312C117.657 45.1354 117.663 45.2083 117.663 45.25C117.663 45.6979 117.616 46.0938 117.522 46.4375C117.439 46.7812 117.303 47.099 117.116 47.3906C116.939 47.6823 116.72 47.9583 116.459 48.2188C116.199 48.4688 115.902 48.7344 115.569 49.0156C115.558 49.0469 115.543 49.099 115.522 49.1719C115.501 49.2448 115.491 49.2969 115.491 49.3281V49.3594C115.491 49.5469 115.522 49.6979 115.584 49.8125C115.647 49.9271 115.73 50.0208 115.834 50.0938C115.949 50.1562 116.074 50.1979 116.209 50.2188C116.355 50.2292 116.511 50.2344 116.678 50.2344C117.168 50.2344 117.636 50.1667 118.084 50.0312C118.532 49.8958 118.944 49.6771 119.319 49.375C119.371 49.3229 119.433 49.25 119.506 49.1562C119.59 49.0521 119.673 48.9479 119.756 48.8438C119.84 48.7396 119.928 48.651 120.022 48.5781C120.116 48.4948 120.215 48.4531 120.319 48.4531C120.423 48.4531 120.485 48.4948 120.506 48.5781C120.527 48.6615 120.538 48.7448 120.538 48.8281C120.538 49.0573 120.465 49.276 120.319 49.4844C120.183 49.6823 120.001 49.8646 119.772 50.0312C119.553 50.1875 119.298 50.3281 119.006 50.4531C118.725 50.5781 118.444 50.6823 118.163 50.7656C117.881 50.849 117.61 50.9115 117.35 50.9531C117.1 50.9948 116.886 51.0156 116.709 51.0156C116.157 51.0156 115.694 50.9271 115.319 50.75C114.954 50.5625 114.704 50.1927 114.569 49.6406L114.647 48.5625ZM116.881 45.4844C116.673 45.6719 116.506 45.8438 116.381 46C116.267 46.1458 116.173 46.3021 116.1 46.4688C116.038 46.625 115.98 46.7969 115.928 46.9844C115.886 47.1719 115.84 47.3906 115.788 47.6406C115.985 47.4844 116.147 47.3281 116.272 47.1719C116.407 47.0156 116.517 46.8542 116.6 46.6875C116.683 46.5208 116.746 46.3438 116.788 46.1562C116.829 45.9583 116.86 45.7344 116.881 45.4844ZM120.842 50.5312C120.842 50.5 120.842 50.4219 120.842 50.2969C120.842 50.1719 120.842 50.0885 120.842 50.0469C120.665 49.4219 120.639 48.8073 120.764 48.2031C120.899 47.599 121.134 47.0573 121.467 46.5781C121.811 46.0885 122.243 45.6823 122.764 45.3594C123.295 45.026 123.873 44.8229 124.498 44.75H124.779C125.009 44.75 125.196 44.8021 125.342 44.9062C125.498 45 125.618 45.125 125.701 45.2812C125.795 45.4375 125.858 45.6146 125.889 45.8125C125.93 46.0104 125.951 46.2083 125.951 46.4062C125.951 46.6771 125.92 46.9427 125.858 47.2031C125.805 47.4531 125.743 47.7083 125.67 47.9688C125.608 48.2292 125.545 48.4896 125.483 48.75C125.43 49 125.404 49.2656 125.404 49.5469V49.6406C125.415 49.6615 125.425 49.724 125.436 49.8281C125.456 49.9219 125.472 49.9792 125.483 50C125.503 50 125.555 50.0052 125.639 50.0156C125.722 50.0156 125.774 50.0156 125.795 50.0156C125.899 50.0156 125.998 50.0156 126.092 50.0156C126.196 50.0052 126.3 49.9792 126.404 49.9375L129.373 48.5625C129.384 48.5625 129.399 48.5625 129.42 48.5625C129.451 48.5521 129.472 48.5469 129.483 48.5469C129.587 48.5469 129.67 48.5781 129.733 48.6406C129.805 48.7031 129.842 48.7865 129.842 48.8906C129.842 48.9427 129.837 48.9948 129.826 49.0469C129.826 49.0885 129.8 49.1302 129.748 49.1719C129.675 49.224 129.54 49.2969 129.342 49.3906C129.154 49.4844 128.951 49.5885 128.733 49.7031C128.514 49.8177 128.305 49.9271 128.108 50.0312C127.92 50.1354 127.785 50.2031 127.701 50.2344C127.555 50.3177 127.394 50.3958 127.217 50.4688C127.04 50.5312 126.858 50.5938 126.67 50.6562C126.483 50.7188 126.295 50.7708 126.108 50.8125C125.93 50.8438 125.769 50.8594 125.623 50.8594C125.394 50.8594 125.206 50.8229 125.061 50.75C124.915 50.6667 124.805 50.5625 124.733 50.4375C124.66 50.3021 124.608 50.1458 124.576 49.9688C124.555 49.7812 124.555 49.5885 124.576 49.3906C124.368 49.5573 124.144 49.7344 123.904 49.9219C123.665 50.1094 123.415 50.2812 123.154 50.4375C122.894 50.5938 122.628 50.7292 122.358 50.8438C122.087 50.9583 121.811 51.0156 121.529 51.0156C121.373 51.0156 121.233 50.9792 121.108 50.9062C120.983 50.8229 120.894 50.6979 120.842 50.5312ZM121.686 50.2031C121.925 50.2031 122.191 50.1354 122.483 50C122.774 49.8542 123.061 49.6771 123.342 49.4688C123.623 49.2604 123.878 49.0417 124.108 48.8125C124.337 48.5729 124.514 48.3594 124.639 48.1719C124.649 47.8594 124.691 47.5625 124.764 47.2812C124.847 46.9896 124.889 46.6927 124.889 46.3906C124.889 46.3698 124.884 46.3385 124.873 46.2969C124.873 46.2552 124.873 46.224 124.873 46.2031C124.738 46.0885 124.623 46.0208 124.529 46C124.436 45.9792 124.311 45.9688 124.154 45.9688C124.134 45.9688 124.087 45.9688 124.014 45.9688C123.951 45.9688 123.91 45.974 123.889 45.9844C123.826 46.0365 123.722 46.1354 123.576 46.2812C123.43 46.4167 123.274 46.5677 123.108 46.7344C122.951 46.901 122.8 47.0573 122.654 47.2031C122.519 47.349 122.425 47.4479 122.373 47.5C122.363 47.5 122.342 47.5208 122.311 47.5625C122.279 47.5938 122.243 47.6354 122.201 47.6875C122.17 47.7396 122.139 47.7917 122.108 47.8438C122.087 47.8854 122.071 47.9219 122.061 47.9531L121.686 49.7812V50.2031ZM129.615 50.9375C129.605 50.9062 129.599 50.8385 129.599 50.7344C129.599 50.6302 129.599 50.5625 129.599 50.5312C129.599 50.1979 129.657 49.875 129.771 49.5625C129.896 49.2396 130.047 48.9323 130.224 48.6406L131.068 46.4375L131.896 43.375L132.584 42.0156C132.605 41.9635 132.641 41.9375 132.693 41.9375C132.756 41.9375 132.813 41.9375 132.865 41.9375C133.084 41.9375 133.219 42.0208 133.271 42.1875C133.323 42.3438 133.349 42.5052 133.349 42.6719C133.349 43.2969 133.256 43.8854 133.068 44.4375C132.881 44.9792 132.641 45.5156 132.349 46.0469C132.537 45.9323 132.724 45.8385 132.912 45.7656C133.11 45.6927 133.318 45.6562 133.537 45.6562C133.808 45.6562 134.026 45.7083 134.193 45.8125C134.36 45.9062 134.537 46.0625 134.724 46.2812C134.735 46.3021 134.74 46.3698 134.74 46.4844C134.74 46.599 134.74 46.6719 134.74 46.7031C134.74 47.0156 134.667 47.3125 134.521 47.5938C134.375 47.875 134.188 48.1302 133.959 48.3594C133.73 48.5885 133.474 48.7969 133.193 48.9844C132.912 49.1615 132.631 49.2969 132.349 49.3906V49.4688C132.349 49.5729 132.381 49.6667 132.443 49.75C132.506 49.8229 132.579 49.8906 132.662 49.9531C132.745 50.0052 132.834 50.0469 132.928 50.0781C133.021 50.099 133.11 50.1094 133.193 50.1094C133.422 50.1094 133.662 50.099 133.912 50.0781C134.162 50.0573 134.407 50.0208 134.646 49.9688C134.896 49.9062 135.131 49.8333 135.349 49.75C135.568 49.6562 135.766 49.5365 135.943 49.3906C136.026 49.3281 136.115 49.2292 136.209 49.0938C136.303 48.9583 136.391 48.8229 136.474 48.6875C136.568 48.5521 136.651 48.4323 136.724 48.3281C136.808 48.224 136.87 48.1719 136.912 48.1719C137.037 48.1719 137.125 48.2292 137.178 48.3438C137.24 48.4479 137.271 48.5521 137.271 48.6562C137.271 48.6667 137.266 48.6927 137.256 48.7344C137.256 48.7656 137.256 48.7865 137.256 48.7969C137.058 49.2135 136.829 49.5625 136.568 49.8438C136.318 50.1146 136.032 50.3333 135.709 50.5C135.386 50.6562 135.021 50.7708 134.615 50.8438C134.219 50.9062 133.776 50.9375 133.287 50.9375C132.87 50.9375 132.516 50.8646 132.224 50.7188C131.943 50.5625 131.709 50.3021 131.521 49.9375C131.511 49.8958 131.49 49.8438 131.459 49.7812C131.438 49.7083 131.412 49.6406 131.381 49.5781C131.36 49.5052 131.329 49.4375 131.287 49.375C131.245 49.3125 131.193 49.2708 131.131 49.25L130.381 50.8438C130.349 50.9167 130.287 50.9635 130.193 50.9844C130.11 51.0052 130.032 51.0156 129.959 51.0156C129.896 51.0156 129.834 51.0104 129.771 51C129.719 51 129.667 50.9792 129.615 50.9375ZM131.678 47.9844C131.678 48.0156 131.693 48.0677 131.724 48.1406C131.756 48.2135 131.792 48.2865 131.834 48.3594C131.875 48.4323 131.917 48.5 131.959 48.5625C132.011 48.6146 132.058 48.6406 132.099 48.6406C132.141 48.6406 132.193 48.6302 132.256 48.6094C132.318 48.5781 132.381 48.5521 132.443 48.5312C132.516 48.5 132.579 48.4688 132.631 48.4375C132.683 48.4062 132.724 48.375 132.756 48.3438C132.787 48.3021 132.844 48.2344 132.928 48.1406C133.011 48.0469 133.099 47.9479 133.193 47.8438C133.297 47.7396 133.391 47.6406 133.474 47.5469C133.568 47.4531 133.625 47.3854 133.646 47.3438C133.657 47.3229 133.672 47.2865 133.693 47.2344C133.724 47.1823 133.75 47.1302 133.771 47.0781C133.803 47.026 133.829 46.974 133.849 46.9219C133.87 46.8698 133.886 46.8333 133.896 46.8125C133.896 46.8021 133.896 46.7917 133.896 46.7812C133.896 46.7604 133.896 46.7448 133.896 46.7344C133.896 46.7031 133.891 46.6771 133.881 46.6562C133.881 46.625 133.855 46.599 133.803 46.5781H133.506C133.381 46.5781 133.261 46.5885 133.146 46.6094C133.042 46.6198 132.933 46.6615 132.818 46.7344C132.787 46.7656 132.724 46.8229 132.631 46.9062C132.537 46.9792 132.443 47.0625 132.349 47.1562C132.256 47.2396 132.162 47.3229 132.068 47.4062C131.974 47.4896 131.917 47.5417 131.896 47.5625C131.875 47.5938 131.834 47.6615 131.771 47.7656C131.709 47.8698 131.678 47.9427 131.678 47.9844ZM137.169 48.5625C137.19 48.5 137.221 48.3906 137.263 48.2344C137.315 48.0677 137.362 47.8906 137.404 47.7031C137.456 47.5156 137.497 47.3385 137.529 47.1719C137.57 46.9948 137.602 46.875 137.622 46.8125C137.685 46.5625 137.758 46.2917 137.841 46C137.935 45.7083 138.06 45.4375 138.216 45.1875C138.372 44.9375 138.57 44.7344 138.81 44.5781C139.06 44.4115 139.367 44.3281 139.732 44.3281C139.867 44.3281 139.961 44.3802 140.013 44.4844C140.076 44.5781 140.128 44.6823 140.169 44.7969C140.169 44.8385 140.169 44.9167 140.169 45.0312C140.18 45.1354 140.185 45.2083 140.185 45.25C140.185 45.6979 140.138 46.0938 140.044 46.4375C139.961 46.7812 139.826 47.099 139.638 47.3906C139.461 47.6823 139.242 47.9583 138.982 48.2188C138.721 48.4688 138.425 48.7344 138.091 49.0156C138.081 49.0469 138.065 49.099 138.044 49.1719C138.024 49.2448 138.013 49.2969 138.013 49.3281V49.3594C138.013 49.5469 138.044 49.6979 138.107 49.8125C138.169 49.9271 138.253 50.0208 138.357 50.0938C138.471 50.1562 138.596 50.1979 138.732 50.2188C138.878 50.2292 139.034 50.2344 139.201 50.2344C139.69 50.2344 140.159 50.1667 140.607 50.0312C141.055 49.8958 141.466 49.6771 141.841 49.375C141.893 49.3229 141.956 49.25 142.029 49.1562C142.112 49.0521 142.195 48.9479 142.279 48.8438C142.362 48.7396 142.451 48.651 142.544 48.5781C142.638 48.4948 142.737 48.4531 142.841 48.4531C142.945 48.4531 143.008 48.4948 143.029 48.5781C143.05 48.6615 143.06 48.7448 143.06 48.8281C143.06 49.0573 142.987 49.276 142.841 49.4844C142.706 49.6823 142.524 49.8646 142.294 50.0312C142.076 50.1875 141.82 50.3281 141.529 50.4531C141.247 50.5781 140.966 50.6823 140.685 50.7656C140.404 50.849 140.133 50.9115 139.872 50.9531C139.622 50.9948 139.409 51.0156 139.232 51.0156C138.68 51.0156 138.216 50.9271 137.841 50.75C137.477 50.5625 137.227 50.1927 137.091 49.6406L137.169 48.5625ZM139.404 45.4844C139.195 45.6719 139.029 45.8438 138.904 46C138.789 46.1458 138.695 46.3021 138.622 46.4688C138.56 46.625 138.503 46.7969 138.451 46.9844C138.409 47.1719 138.362 47.3906 138.31 47.6406C138.508 47.4844 138.669 47.3281 138.794 47.1719C138.93 47.0156 139.039 46.8542 139.122 46.6875C139.206 46.5208 139.268 46.3438 139.31 46.1562C139.352 45.9583 139.383 45.7344 139.404 45.4844ZM142.677 49.1406C142.969 48.9219 143.182 48.7083 143.318 48.5C143.463 48.2917 143.578 48.0833 143.661 47.875C143.745 47.6667 143.812 47.4479 143.864 47.2188C143.916 46.9792 144 46.7188 144.114 46.4375C144.073 46.3646 144.047 46.3021 144.036 46.25C144.036 46.1875 144.036 46.1146 144.036 46.0312C144.036 45.9479 144.047 45.849 144.068 45.7344C144.099 45.6198 144.14 45.5156 144.193 45.4219C144.245 45.3177 144.307 45.2292 144.38 45.1562C144.453 45.0833 144.541 45.0469 144.646 45.0469C144.635 45.0885 144.693 45.1354 144.818 45.1875C144.953 45.2396 145.114 45.2969 145.302 45.3594C145.5 45.4219 145.708 45.4896 145.927 45.5625C146.146 45.6354 146.338 45.7135 146.505 45.7969C146.693 45.901 146.823 46.0156 146.896 46.1406C146.979 46.2552 147.021 46.4219 147.021 46.6406C147.021 46.8385 146.995 47.0625 146.943 47.3125C146.901 47.5625 146.854 47.8177 146.802 48.0781C146.76 48.3281 146.713 48.5833 146.661 48.8438C146.62 49.0938 146.599 49.3229 146.599 49.5312V49.9375C146.588 50.0312 146.609 50.0833 146.661 50.0938C146.724 50.0938 146.781 50.0938 146.833 50.0938C146.958 50.0938 147.073 50.0729 147.177 50.0312C147.281 49.9896 147.385 49.9427 147.489 49.8906C147.604 49.8385 147.713 49.7917 147.818 49.75C147.922 49.6979 148.031 49.6615 148.146 49.6406L149.521 48.7969C149.562 48.724 149.614 48.6667 149.677 48.625C149.75 48.5729 149.818 48.526 149.88 48.4844C149.984 48.4219 150.109 48.3333 150.255 48.2188C150.328 48.1562 150.406 48.0938 150.489 48.0312H150.958C150.989 48.0312 151.01 48.0625 151.021 48.125C151.031 48.1875 151.036 48.2344 151.036 48.2656C151.036 48.3906 150.948 48.5469 150.771 48.7344C150.594 48.9219 150.364 49.1146 150.083 49.3125C149.802 49.5104 149.489 49.7083 149.146 49.9062C148.802 50.0938 148.463 50.2656 148.13 50.4219C147.807 50.5781 147.505 50.7031 147.224 50.7969C146.953 50.8906 146.745 50.9375 146.599 50.9375C146.411 50.9375 146.26 50.8906 146.146 50.7969C146.031 50.7031 145.937 50.5885 145.864 50.4531C145.791 50.3177 145.739 50.1719 145.708 50.0156C145.687 49.849 145.677 49.6875 145.677 49.5312C145.677 49.4167 145.713 49.2552 145.786 49.0469C145.859 48.8385 145.943 48.625 146.036 48.4062C146.13 48.1875 146.213 47.974 146.286 47.7656C146.359 47.5573 146.396 47.3906 146.396 47.2656C146.396 47.2552 146.318 47.2135 146.161 47.1406C146.015 47.0677 145.854 46.9896 145.677 46.9062C145.5 46.8125 145.333 46.7344 145.177 46.6719C145.031 46.599 144.958 46.5573 144.958 46.5469C144.729 46.7865 144.568 47.0417 144.474 47.3125C144.39 47.5833 144.302 47.8646 144.208 48.1562C144.125 48.4479 143.995 48.7396 143.818 49.0312C143.651 49.3229 143.364 49.6094 142.958 49.8906C142.948 49.8906 142.927 49.8854 142.896 49.875C142.854 49.8646 142.818 49.8385 142.786 49.7969C142.745 49.7448 142.713 49.6719 142.693 49.5781C142.672 49.474 142.666 49.3281 142.677 49.1406ZM151.325 48.7969C151.242 48.8385 151.153 48.8646 151.059 48.875C150.966 48.875 150.872 48.875 150.778 48.875C150.684 48.875 150.591 48.8802 150.497 48.8906C150.403 48.8906 150.309 48.9115 150.216 48.9531C150.039 48.974 149.924 48.9635 149.872 48.9219C149.82 48.8698 149.804 48.8021 149.825 48.7188C149.846 48.6354 149.903 48.5417 149.997 48.4375C150.091 48.3333 150.2 48.2448 150.325 48.1719C150.44 48.099 150.565 48.0469 150.7 48.0156C150.846 47.9844 150.976 47.9896 151.091 48.0312C151.039 47.8438 151.044 47.6823 151.106 47.5469C151.169 47.4115 151.294 47.3438 151.481 47.3438C151.575 47.3438 151.658 47.3542 151.731 47.375C151.815 47.3854 151.877 47.4271 151.919 47.5C152.075 47.4062 152.283 47.25 152.544 47.0312C152.804 46.8021 153.07 46.5729 153.341 46.3438C153.622 46.1042 153.877 45.8958 154.106 45.7188C154.335 45.5312 154.492 45.4375 154.575 45.4375C154.606 45.4375 154.648 45.4427 154.7 45.4531C154.752 45.4531 154.804 45.4635 154.856 45.4844C154.919 45.5052 154.966 45.5312 154.997 45.5625C155.039 45.5833 155.059 45.6198 155.059 45.6719V46.3438C154.986 46.6354 154.914 46.9115 154.841 47.1719C154.778 47.4219 154.721 47.6719 154.669 47.9219C154.627 48.1615 154.596 48.4062 154.575 48.6562C154.554 48.9062 154.544 49.1719 154.544 49.4531C154.71 49.4531 154.908 49.4167 155.137 49.3438C155.377 49.2708 155.617 49.1823 155.856 49.0781C156.096 48.974 156.32 48.8698 156.528 48.7656C156.736 48.651 156.903 48.5573 157.028 48.4844C157.049 48.474 157.096 48.4375 157.169 48.375C157.242 48.3125 157.32 48.25 157.403 48.1875C157.486 48.1146 157.565 48.0521 157.637 48C157.721 47.9375 157.773 47.8958 157.794 47.875C157.815 47.8542 157.867 47.8281 157.95 47.7969C158.033 47.7552 158.08 47.7292 158.091 47.7188C158.132 47.7083 158.169 47.724 158.2 47.7656C158.242 47.7969 158.278 47.8385 158.309 47.8906C158.341 47.9323 158.361 47.9792 158.372 48.0312C158.393 48.0729 158.403 48.099 158.403 48.1094C158.403 48.2135 158.361 48.3177 158.278 48.4219C158.195 48.526 158.096 48.625 157.981 48.7188C157.867 48.8021 157.747 48.8854 157.622 48.9688C157.507 49.0417 157.419 49.1094 157.356 49.1719C157.273 49.2135 157.127 49.2812 156.919 49.375C156.721 49.4688 156.507 49.5677 156.278 49.6719C156.049 49.776 155.83 49.875 155.622 49.9688C155.424 50.0625 155.283 50.1302 155.2 50.1719C155.179 50.1823 155.132 50.1979 155.059 50.2188C154.986 50.2292 154.908 50.25 154.825 50.2812C154.742 50.3125 154.658 50.3385 154.575 50.3594C154.502 50.3698 154.455 50.3802 154.434 50.3906C154.341 50.4219 154.268 50.474 154.216 50.5469C154.174 50.6198 154.127 50.6927 154.075 50.7656C154.033 50.8385 153.976 50.901 153.903 50.9531C153.841 51.0052 153.736 51.0208 153.591 51C153.58 50.9896 153.533 50.9688 153.45 50.9375C153.377 50.8958 153.33 50.8646 153.309 50.8438C153.059 50.6667 152.846 50.5 152.669 50.3438C152.492 50.1875 152.33 50.0365 152.184 49.8906C152.039 49.7344 151.898 49.5677 151.762 49.3906C151.637 49.2135 151.492 49.0156 151.325 48.7969ZM152.309 48.1719C152.382 48.3281 152.45 48.4792 152.512 48.625C152.585 48.7708 152.669 48.9115 152.762 49.0469C152.856 49.1719 152.96 49.2812 153.075 49.375C153.2 49.4688 153.351 49.526 153.528 49.5469C153.549 49.3906 153.575 49.2031 153.606 48.9844C153.637 48.7656 153.674 48.5365 153.716 48.2969C153.757 48.0573 153.804 47.8229 153.856 47.5938C153.919 47.3542 153.986 47.1458 154.059 46.9688H153.903C153.736 47.0833 153.58 47.1979 153.434 47.3125C153.299 47.4167 153.164 47.5208 153.028 47.625C152.893 47.7188 152.783 47.8021 152.7 47.875C152.69 47.8854 152.674 47.901 152.653 47.9219C152.632 47.9427 152.617 47.9531 152.606 47.9531C152.596 47.974 152.549 48.0104 152.466 48.0625C152.382 48.1146 152.33 48.151 152.309 48.1719ZM154.059 46.7344C154.028 46.7344 154.012 46.7604 154.012 46.8125C154.012 46.8542 154.028 46.875 154.059 46.875C154.101 46.875 154.122 46.8542 154.122 46.8125C154.122 46.7604 154.101 46.7344 154.059 46.7344Z" fill="#F0A31F"/>
</svg>
